<?xml version="1.0" encoding="UTF-8" standalone="no"?>
<svg
   xmlns:dc="http://purl.org/dc/elements/1.1/"
   xmlns:cc="http://creativecommons.org/ns#"
   xmlns:rdf="http://www.w3.org/1999/02/22-rdf-syntax-ns#"
   xmlns:svg="http://www.w3.org/2000/svg"
   xmlns="http://www.w3.org/2000/svg"
   xmlns:sodipodi="http://sodipodi.sourceforge.net/DTD/sodipodi-0.dtd"
   xmlns:inkscape="http://www.inkscape.org/namespaces/inkscape"
   version="1.1"
   x="0px"
   y="0px"
   viewBox="0 0 100 125"
   style="enable-background:new 0 0 100 100;"
   xml:space="preserve"
   id="svg30"
   sodipodi:docname="area.svg"
   inkscape:version="0.92.5 (2060ec1f9f, 2020-04-08)"><metadata
     id="metadata36"><rdf:RDF><cc:Work
         rdf:about=""><dc:format>image/svg+xml</dc:format><dc:type
           rdf:resource="http://purl.org/dc/dcmitype/StillImage" /></cc:Work></rdf:RDF></metadata><defs
     id="defs34" /><sodipodi:namedview
     pagecolor="#ffffff"
     bordercolor="#666666"
     borderopacity="1"
     objecttolerance="10"
     gridtolerance="10"
     guidetolerance="10"
     inkscape:pageopacity="0"
     inkscape:pageshadow="2"
     inkscape:window-width="1920"
     inkscape:window-height="1017"
     id="namedview32"
     showgrid="false"
     inkscape:zoom="6.8"
     inkscape:cx="26.102941"
     inkscape:cy="62.5"
     inkscape:window-x="1912"
     inkscape:window-y="-7"
     inkscape:window-maximized="1"
     inkscape:current-layer="svg30" /><path
     d="M85.72,72.05v-44.1c6.06-0.74,10.78-5.91,10.78-12.18c0-6.77-5.51-12.28-12.28-12.28c-6.26,0-11.43,4.71-12.18,10.78h-44.1  C27.21,8.21,22.04,3.5,15.78,3.5C9.01,3.5,3.5,9.01,3.5,15.78c0,6.26,4.71,11.43,10.78,12.18v44.1C8.21,72.79,3.5,77.96,3.5,84.22  c0,6.77,5.51,12.28,12.28,12.28c6.26,0,11.43-4.71,12.18-10.78h44.1c0.74,6.06,5.91,10.78,12.18,10.78  c6.77,0,12.28-5.51,12.28-12.28C96.5,77.96,91.79,72.79,85.72,72.05z M81.72,72.2c-0.37,0.08-0.74,0.17-1.09,0.28  c-0.1,0.03-0.2,0.07-0.3,0.11c-0.25,0.09-0.51,0.17-0.75,0.28c-0.13,0.05-0.25,0.11-0.38,0.17c-0.22,0.1-0.43,0.2-0.64,0.31  c-0.13,0.07-0.25,0.14-0.38,0.21c-0.2,0.11-0.4,0.24-0.59,0.36c-0.12,0.08-0.24,0.15-0.35,0.23c-0.2,0.14-0.4,0.29-0.6,0.45  c-0.09,0.07-0.19,0.14-0.28,0.22c-0.28,0.23-0.55,0.47-0.8,0.73c-0.01,0.01-0.01,0.01-0.02,0.02c-0.26,0.26-0.5,0.53-0.73,0.8  c-0.08,0.09-0.15,0.19-0.22,0.28c-0.15,0.2-0.3,0.39-0.45,0.6c-0.08,0.11-0.15,0.23-0.23,0.35c-0.13,0.19-0.25,0.39-0.36,0.59  c-0.07,0.13-0.14,0.25-0.21,0.38c-0.11,0.21-0.21,0.42-0.31,0.64c-0.06,0.13-0.12,0.25-0.17,0.38c-0.1,0.25-0.19,0.5-0.28,0.75  c-0.03,0.1-0.07,0.2-0.11,0.3c-0.11,0.36-0.2,0.72-0.28,1.09c-0.02,0.08-0.02,0.15-0.04,0.23c-0.05,0.25-0.1,0.51-0.13,0.77h-8.18  l18.86-18.86v8.18c-0.26,0.03-0.51,0.08-0.77,0.13C81.88,72.18,81.8,72.19,81.72,72.2z M41.63,82.72l41.09-41.1v17.99L59.62,82.72  H41.63z M27.96,82.72c-0.03-0.26-0.08-0.51-0.13-0.77c-0.01-0.08-0.02-0.15-0.04-0.23c-0.08-0.37-0.17-0.74-0.28-1.09  c-0.03-0.1-0.07-0.2-0.11-0.3c-0.09-0.25-0.17-0.51-0.28-0.75c-0.05-0.13-0.11-0.25-0.17-0.38c-0.1-0.22-0.2-0.43-0.31-0.64  c-0.07-0.13-0.14-0.25-0.21-0.38c-0.11-0.2-0.24-0.4-0.36-0.59c-0.08-0.12-0.15-0.24-0.23-0.35c-0.13-0.19-0.27-0.38-0.42-0.56  l51.24-51.24c0.18,0.14,0.37,0.28,0.56,0.42c0.11,0.08,0.23,0.15,0.35,0.23c0.19,0.13,0.39,0.25,0.59,0.36  c0.13,0.07,0.25,0.14,0.38,0.21c0.21,0.11,0.42,0.21,0.64,0.31c0.13,0.06,0.25,0.12,0.38,0.17c0.25,0.1,0.5,0.19,0.75,0.28  c0.1,0.03,0.2,0.07,0.3,0.11c0.36,0.11,0.72,0.2,1.09,0.28c0.08,0.02,0.15,0.02,0.23,0.04c0.25,0.05,0.51,0.1,0.77,0.13v9.57  c-0.16,0.07-0.31,0.16-0.44,0.29l-44.9,44.9H27.96z M21.82,73.55c-0.13-0.07-0.25-0.14-0.38-0.21c-0.21-0.11-0.42-0.21-0.64-0.31  c-0.13-0.06-0.25-0.12-0.38-0.17c-0.25-0.1-0.5-0.19-0.75-0.28c-0.1-0.03-0.2-0.07-0.3-0.11c-0.36-0.11-0.72-0.2-1.09-0.28  c-0.08-0.02-0.15-0.02-0.23-0.04c-0.25-0.05-0.51-0.1-0.77-0.13v-9.42l45.34-45.34h9.42c0.03,0.26,0.08,0.51,0.13,0.77  c0.01,0.08,0.02,0.15,0.04,0.23c0.08,0.37,0.17,0.74,0.28,1.09c0.03,0.1,0.07,0.2,0.11,0.3c0.09,0.25,0.17,0.51,0.28,0.75  c0.05,0.13,0.11,0.25,0.17,0.38c0.1,0.22,0.2,0.43,0.31,0.64c0.07,0.13,0.14,0.25,0.21,0.38c0.11,0.2,0.24,0.4,0.36,0.59  c0.08,0.12,0.15,0.24,0.23,0.35c0.13,0.19,0.27,0.38,0.42,0.56L23.32,74.56c-0.18-0.14-0.37-0.28-0.56-0.42  c-0.11-0.08-0.23-0.15-0.35-0.23C22.22,73.78,22.02,73.66,21.82,73.55z M18.05,27.83c0.08-0.01,0.15-0.02,0.23-0.04  c0.37-0.08,0.74-0.17,1.09-0.28c0.1-0.03,0.2-0.07,0.3-0.11c0.25-0.09,0.51-0.17,0.75-0.28c0.13-0.05,0.25-0.11,0.38-0.17  c0.22-0.1,0.43-0.2,0.64-0.31c0.13-0.07,0.25-0.14,0.38-0.21c0.2-0.11,0.4-0.24,0.59-0.36c0.12-0.08,0.24-0.15,0.35-0.23  c0.2-0.14,0.4-0.29,0.6-0.45c0.09-0.07,0.19-0.14,0.28-0.22c0.28-0.23,0.55-0.47,0.8-0.73c0.01-0.01,0.01-0.01,0.02-0.02  c0.26-0.26,0.5-0.53,0.73-0.8c0.08-0.09,0.15-0.19,0.22-0.28c0.15-0.2,0.3-0.39,0.45-0.6c0.08-0.11,0.15-0.23,0.23-0.35  c0.13-0.19,0.25-0.39,0.36-0.59c0.07-0.13,0.14-0.25,0.21-0.38c0.11-0.21,0.21-0.42,0.31-0.64c0.06-0.13,0.12-0.25,0.17-0.38  c0.1-0.25,0.19-0.5,0.28-0.75c0.03-0.1,0.07-0.2,0.11-0.3c0.11-0.36,0.2-0.72,0.28-1.09c0.02-0.08,0.02-0.15,0.04-0.23  c0.05-0.25,0.1-0.51,0.13-0.77h8.18L17.28,36.14v-8.18C17.54,27.93,17.79,27.88,18.05,27.83z M17.28,40.38l23.11-23.11h17.99  L17.28,58.37V40.38z M84.22,6.5c5.12,0,9.28,4.16,9.28,9.28s-4.16,9.28-9.28,9.28c-2.41,0-4.6-0.93-6.25-2.44  c-0.07-0.12-0.13-0.25-0.23-0.35c-0.1-0.1-0.23-0.17-0.35-0.23c-1.51-1.65-2.44-3.84-2.44-6.25C74.95,10.66,79.11,6.5,84.22,6.5z   M6.5,15.78c0-5.12,4.16-9.28,9.28-9.28s9.28,4.16,9.28,9.28s-4.16,9.28-9.28,9.28S6.5,20.89,6.5,15.78z M15.78,93.5  c-5.12,0-9.28-4.16-9.28-9.28s4.16-9.28,9.28-9.28s9.28,4.16,9.28,9.28S20.89,93.5,15.78,93.5z M84.22,93.5  c-5.12,0-9.28-4.16-9.28-9.28s4.16-9.28,9.28-9.28s9.28,4.16,9.28,9.28S89.34,93.5,84.22,93.5z"
     id="path24"
     style="fill:#ffbd69;fill-opacity:1" /></svg>