<?xml version="1.0" encoding="UTF-8" standalone="no"?>
<svg
   xmlns:dc="http://purl.org/dc/elements/1.1/"
   xmlns:cc="http://creativecommons.org/ns#"
   xmlns:rdf="http://www.w3.org/1999/02/22-rdf-syntax-ns#"
   xmlns:svg="http://www.w3.org/2000/svg"
   xmlns="http://www.w3.org/2000/svg"
   xmlns:sodipodi="http://sodipodi.sourceforge.net/DTD/sodipodi-0.dtd"
   xmlns:inkscape="http://www.inkscape.org/namespaces/inkscape"
   data-name="Layer 1"
   viewBox="0 0 512 640"
   x="0px"
   y="0px"
   version="1.1"
   id="svg50"
   sodipodi:docname="bytes.svg"
   inkscape:version="0.92.5 (2060ec1f9f, 2020-04-08)">
  <metadata
     id="metadata56">
    <rdf:RDF>
      <cc:Work
         rdf:about="">
        <dc:format>image/svg+xml</dc:format>
        <dc:type
           rdf:resource="http://purl.org/dc/dcmitype/StillImage" />
      </cc:Work>
    </rdf:RDF>
  </metadata>
  <defs
     id="defs54" />
  <sodipodi:namedview
     pagecolor="#ffffff"
     bordercolor="#666666"
     borderopacity="1"
     objecttolerance="10"
     gridtolerance="10"
     guidetolerance="10"
     inkscape:pageopacity="0"
     inkscape:pageshadow="2"
     inkscape:window-width="1920"
     inkscape:window-height="1017"
     id="namedview52"
     showgrid="false"
     inkscape:zoom="1.328125"
     inkscape:cx="133.64706"
     inkscape:cy="410.35294"
     inkscape:window-x="1912"
     inkscape:window-y="-7"
     inkscape:window-maximized="1"
     inkscape:current-layer="svg50" />
  <title
     id="title34">Monitor Coding</title>
  <path
     d="M29.683,411H185.448l-15.513,56H142.467a8,8,0,1,0,0,16H369.533a8,8,0,0,0,0-16H342.065l-15.513-56H482.316A7.378,7.378,0,0,0,490,403.43V37.242c0-4.418-3.266-8.242-7.684-8.242H29.683C25.265,29,22,32.824,22,37.242V403.43A7.377,7.377,0,0,0,29.683,411Zm156.869,56,15.513-56h107.87l15.513,56ZM38,45H474V325H38Zm0,296H474v54H38Z"
     id="path36"
     style="fill:#ffbd69;fill-opacity:1" />
  <path
     d="M169.939,141.9C154.1,141.9,142,149.341,142,169.38v33.48c0,20.039,12.1,27.478,27.939,27.478S198,222.9,198,202.86V169.38C198,149.341,185.779,141.9,169.939,141.9ZM182,202.86c0,9.479-4.76,13.8-12.56,13.8-7.919,0-12.44-4.32-12.44-13.8V169.38c0-9.479,4.521-13.8,12.44-13.8,7.8,0,12.56,4.319,12.56,13.8Z"
     id="path38"
     style="fill:#ffbd69;fill-opacity:1" />
  <path
     d="M236.121,141.662a4.77,4.77,0,0,0-3.2,1.2l-14.14,10.8a6.73,6.73,0,0,0-2.99,5.639c0,3.12,2.045,6.24,5.045,6.24a4.876,4.876,0,0,0,3.1-1.08L228,160.622V224.7c0,3.239,3.54,4.92,7.5,4.92,3.84,0,7.5-1.681,7.5-4.92v-78C243,143.582,239.36,141.662,236.121,141.662Z"
     id="path40"
     style="fill:#ffbd69;fill-opacity:1" />
  <path
     d="M295.94,141.9C280.1,141.9,268,149.341,268,169.38v33.48c0,20.039,12.1,27.478,27.94,27.478S324,222.9,324,202.86V169.38C324,149.341,311.779,141.9,295.94,141.9ZM308,202.86c0,9.479-4.761,13.8-12.56,13.8-7.919,0-12.44-4.32-12.44-13.8V169.38c0-9.479,4.521-13.8,12.44-13.8,7.8,0,12.56,4.319,12.56,13.8Z"
     id="path42"
     style="fill:#ffbd69;fill-opacity:1" />
  <path
     d="M362.06,141.662a4.85,4.85,0,0,0-3.231,1.2l-14.155,10.8a6.737,6.737,0,0,0-3,5.639c0,3.12,2.041,6.24,5.041,6.24a3.844,3.844,0,0,0,2.661-1.08L353,160.622V224.7c0,3.239,4.04,4.92,8,4.92,3.84,0,8-1.681,8-4.92v-78C369,143.582,365.3,141.662,362.06,141.662Z"
     id="path44"
     style="fill:#ffbd69;fill-opacity:1" />
</svg>
