<?xml version="1.0" encoding="UTF-8" standalone="no"?>
<svg
   xmlns:dc="http://purl.org/dc/elements/1.1/"
   xmlns:cc="http://creativecommons.org/ns#"
   xmlns:rdf="http://www.w3.org/1999/02/22-rdf-syntax-ns#"
   xmlns:svg="http://www.w3.org/2000/svg"
   xmlns="http://www.w3.org/2000/svg"
   xmlns:sodipodi="http://sodipodi.sourceforge.net/DTD/sodipodi-0.dtd"
   xmlns:inkscape="http://www.inkscape.org/namespaces/inkscape"
   version="1.1"
   x="0px"
   y="0px"
   viewBox="0 0 100 125"
   style="enable-background:new 0 0 100 100;"
   xml:space="preserve"
   id="svg22"
   sodipodi:docname="distance.svg"
   inkscape:version="0.92.5 (2060ec1f9f, 2020-04-08)"><metadata
     id="metadata28"><rdf:RDF><cc:Work
         rdf:about=""><dc:format>image/svg+xml</dc:format><dc:type
           rdf:resource="http://purl.org/dc/dcmitype/StillImage" /></cc:Work></rdf:RDF></metadata><defs
     id="defs26" /><sodipodi:namedview
     pagecolor="#ffffff"
     bordercolor="#666666"
     borderopacity="1"
     objecttolerance="10"
     gridtolerance="10"
     guidetolerance="10"
     inkscape:pageopacity="0"
     inkscape:pageshadow="2"
     inkscape:window-width="1920"
     inkscape:window-height="1017"
     id="namedview24"
     showgrid="false"
     inkscape:zoom="1.888"
     inkscape:cx="50"
     inkscape:cy="62.5"
     inkscape:window-x="1912"
     inkscape:window-y="-7"
     inkscape:window-maximized="1"
     inkscape:current-layer="svg22" /><g
     id="g16"
     style="fill:#ffbd69;fill-opacity:1"><path
       d="M24.24,32.2c0-3.56-2.89-6.45-6.45-6.45s-6.45,2.89-6.45,6.45c0,3.55,2.89,6.45,6.45,6.45S24.24,35.76,24.24,32.2z    M14.34,32.2c0-1.9,1.55-3.45,3.45-3.45s3.45,1.55,3.45,3.45c0,1.9-1.55,3.45-3.45,3.45S14.34,34.1,14.34,32.2z"
       id="path2"
       style="fill:#ffbd69;fill-opacity:1" /><path
       d="M82.21,45.75c-3.55,0-6.45,2.89-6.45,6.45c0,3.55,2.89,6.45,6.45,6.45s6.45-2.89,6.45-6.45   C88.66,48.65,85.77,45.75,82.21,45.75z M82.21,55.65c-1.9,0-3.45-1.55-3.45-3.45c0-1.9,1.55-3.45,3.45-3.45s3.45,1.55,3.45,3.45   C85.66,54.1,84.11,55.65,82.21,55.65z"
       id="path4"
       style="fill:#ffbd69;fill-opacity:1" /><path
       d="M82.21,37.91c-7.88,0-14.29,6.41-14.29,14.29c0,5.77,7.35,19.34,11.05,25.81l-3.44-1.07c-0.79-0.24-1.63,0.2-1.88,0.99   c-0.25,0.79,0.2,1.63,0.99,1.88l4.78,1.48c0.15,0.05,0.3,0.07,0.44,0.07c0.32,0,0.63-0.11,0.89-0.29c0.07,0.12,0.13,0.22,0.17,0.29   c0.27,0.45,0.76,0.73,1.29,0.73s1.02-0.28,1.29-0.73c1.33-2.22,13-21.89,13-29.16C96.5,44.32,90.09,37.91,82.21,37.91z    M82.21,77.63c-4.04-6.99-11.29-20.55-11.29-25.42c0-6.22,5.06-11.29,11.29-11.29S93.5,45.98,93.5,52.2   C93.5,57.07,86.25,70.63,82.21,77.63z"
       id="path6"
       style="fill:#ffbd69;fill-opacity:1" /><path
       d="M23.01,60.64l-2.96-0.92c3.15-5.4,12.03-21.17,12.03-27.52c0-7.88-6.41-14.29-14.29-14.29S3.5,24.32,3.5,32.2   c0,7.27,11.67,26.94,13,29.16c0.01,0.02,0.03,0.03,0.04,0.05c0.05,0.07,0.1,0.14,0.17,0.21c0.02,0.02,0.05,0.05,0.07,0.07   c0.07,0.07,0.16,0.13,0.24,0.18c0.01,0.01,0.02,0.02,0.03,0.02c0.09,0.05,0.19,0.09,0.29,0.12l4.78,1.48   c0.15,0.05,0.3,0.07,0.44,0.07c0.64,0,1.23-0.41,1.43-1.06C24.24,61.72,23.8,60.88,23.01,60.64z M17.79,20.91   c6.22,0,11.29,5.06,11.29,11.29c0,4.87-7.25,18.43-11.29,25.42C13.75,50.63,6.5,37.07,6.5,32.2C6.5,25.98,11.56,20.91,17.79,20.91z   "
       id="path8"
       style="fill:#ffbd69;fill-opacity:1" /><path
       d="M65.98,73.98l-4.78-1.48c-0.79-0.24-1.63,0.2-1.88,0.99c-0.25,0.79,0.2,1.63,0.99,1.88l4.78,1.48   c0.15,0.05,0.3,0.07,0.44,0.07c0.64,0,1.23-0.41,1.43-1.06C67.22,75.06,66.78,74.22,65.98,73.98z"
       id="path10"
       style="fill:#ffbd69;fill-opacity:1" /><path
       d="M37.33,65.08l-4.78-1.48c-0.79-0.24-1.63,0.2-1.88,0.99c-0.25,0.79,0.2,1.63,0.99,1.88l4.78,1.48   c0.15,0.05,0.3,0.07,0.44,0.07c0.64,0,1.23-0.41,1.43-1.06C38.57,66.17,38.12,65.33,37.33,65.08z"
       id="path12"
       style="fill:#ffbd69;fill-opacity:1" /><path
       d="M51.66,69.53l-4.78-1.48c-0.79-0.24-1.63,0.2-1.88,0.99c-0.25,0.79,0.2,1.63,0.99,1.88l4.78,1.48   c0.15,0.05,0.3,0.07,0.44,0.07c0.64,0,1.23-0.41,1.43-1.06C52.89,70.62,52.45,69.78,51.66,69.53z"
       id="path14"
       style="fill:#ffbd69;fill-opacity:1" /></g></svg>