<?xml version="1.0" encoding="UTF-8" standalone="no"?>
<svg
   xmlns:dc="http://purl.org/dc/elements/1.1/"
   xmlns:cc="http://creativecommons.org/ns#"
   xmlns:rdf="http://www.w3.org/1999/02/22-rdf-syntax-ns#"
   xmlns:svg="http://www.w3.org/2000/svg"
   xmlns="http://www.w3.org/2000/svg"
   xmlns:sodipodi="http://sodipodi.sourceforge.net/DTD/sodipodi-0.dtd"
   xmlns:inkscape="http://www.inkscape.org/namespaces/inkscape"
   version="1.1"
   x="0px"
   y="0px"
   viewBox="0 0 100 125"
   style="enable-background:new 0 0 100 100;"
   xml:space="preserve"
   id="svg30"
   sodipodi:docname="force.svg"
   inkscape:version="0.92.5 (2060ec1f9f, 2020-04-08)"><metadata
     id="metadata36"><rdf:RDF><cc:Work
         rdf:about=""><dc:format>image/svg+xml</dc:format><dc:type
           rdf:resource="http://purl.org/dc/dcmitype/StillImage" /></cc:Work></rdf:RDF></metadata><defs
     id="defs34" /><sodipodi:namedview
     pagecolor="#ffffff"
     bordercolor="#666666"
     borderopacity="1"
     objecttolerance="10"
     gridtolerance="10"
     guidetolerance="10"
     inkscape:pageopacity="0"
     inkscape:pageshadow="2"
     inkscape:window-width="1920"
     inkscape:window-height="1017"
     id="namedview32"
     showgrid="false"
     inkscape:zoom="6.8"
     inkscape:cx="26.102941"
     inkscape:cy="62.5"
     inkscape:window-x="1912"
     inkscape:window-y="-7"
     inkscape:window-maximized="1"
     inkscape:current-layer="svg30" /><path
     d="M95,45.69H84.94v-4.75c0-3.35-2.72-6.07-6.07-6.07c-1.12,0-2.17,0.31-3.07,0.84v-4.26c0-3.35-2.72-6.07-6.07-6.07  s-6.07,2.72-6.07,6.07v14.24H36.33V31.45c0-3.35-2.72-6.07-6.07-6.07s-6.07,2.72-6.07,6.07v4.26c-0.9-0.53-1.95-0.84-3.07-0.84  c-3.35,0-6.07,2.72-6.07,6.07v4.75H5c-0.83,0-1.5,0.67-1.5,1.5v5.61c0,0.83,0.67,1.5,1.5,1.5h10.06v4.75c0,3.35,2.72,6.07,6.07,6.07  c1.12,0,2.17-0.31,3.07-0.84v4.26c0,3.35,2.72,6.07,6.07,6.07s6.07-2.72,6.07-6.07V54.31h27.33v14.24c0,3.35,2.72,6.07,6.07,6.07  s6.07-2.72,6.07-6.07v-4.26c0.9,0.53,1.95,0.84,3.07,0.84c3.35,0,6.07-2.72,6.07-6.07v-4.75H95c0.83,0,1.5-0.67,1.5-1.5v-5.61  C96.5,46.36,95.83,45.69,95,45.69z M6.5,51.31v-2.61h8.56v2.61H6.5z M21.13,62.13c-1.69,0-3.07-1.38-3.07-3.07v-6.25v-5.61v-6.25  c0-1.69,1.38-3.07,3.07-3.07c1.69,0,3.07,1.38,3.07,3.07v18.12C24.2,60.75,22.82,62.13,21.13,62.13z M33.33,68.55  c0,1.69-1.38,3.07-3.07,3.07c-1.69,0-3.07-1.38-3.07-3.07v-9.49V40.94v-9.49c0-1.69,1.38-3.07,3.07-3.07c1.69,0,3.07,1.38,3.07,3.07  v15.74v5.61V68.55z M36.33,51.31v-2.61h27.33v2.61H36.33z M72.8,68.55c0,1.69-1.38,3.07-3.07,3.07c-1.69,0-3.07-1.38-3.07-3.07  V52.81v-5.61V31.45c0-1.69,1.38-3.07,3.07-3.07c1.69,0,3.07,1.38,3.07,3.07v9.49v18.12V68.55z M81.94,59.06  c0,1.69-1.38,3.07-3.07,3.07c-1.69,0-3.07-1.38-3.07-3.07V40.94c0-1.69,1.38-3.07,3.07-3.07c1.69,0,3.07,1.38,3.07,3.07v6.25v5.61  V59.06z M93.5,51.31h-8.56v-2.61h8.56V51.31z"
     id="path24"
     style="fill:#ffbd69;fill-opacity:1" /></svg>