<?xml version="1.0" encoding="UTF-8" standalone="no"?>
<svg
   xmlns:dc="http://purl.org/dc/elements/1.1/"
   xmlns:cc="http://creativecommons.org/ns#"
   xmlns:rdf="http://www.w3.org/1999/02/22-rdf-syntax-ns#"
   xmlns:svg="http://www.w3.org/2000/svg"
   xmlns="http://www.w3.org/2000/svg"
   xmlns:sodipodi="http://sodipodi.sourceforge.net/DTD/sodipodi-0.dtd"
   xmlns:inkscape="http://www.inkscape.org/namespaces/inkscape"
   version="1.1"
   x="0px"
   y="0px"
   viewBox="0 0 100 125"
   style="enable-background:new 0 0 100 100;"
   xml:space="preserve"
   id="svg10"
   sodipodi:docname="frequency.svg"
   inkscape:version="0.92.5 (2060ec1f9f, 2020-04-08)"><metadata
     id="metadata16"><rdf:RDF><cc:Work
         rdf:about=""><dc:format>image/svg+xml</dc:format><dc:type
           rdf:resource="http://purl.org/dc/dcmitype/StillImage" /></cc:Work></rdf:RDF></metadata><defs
     id="defs14" /><sodipodi:namedview
     pagecolor="#ffffff"
     bordercolor="#666666"
     borderopacity="1"
     objecttolerance="10"
     gridtolerance="10"
     guidetolerance="10"
     inkscape:pageopacity="0"
     inkscape:pageshadow="2"
     inkscape:window-width="1920"
     inkscape:window-height="1017"
     id="namedview12"
     showgrid="false"
     inkscape:zoom="1.888"
     inkscape:cx="50"
     inkscape:cy="62.5"
     inkscape:window-x="-8"
     inkscape:window-y="-8"
     inkscape:window-maximized="1"
     inkscape:current-layer="svg10" /><g
     id="g4"
     style="fill:#ffbd00;fill-opacity:1"><path
       d="M18.9,50.2l10.4,14.2c0.1,0.1,0.1,0.2,0.2,0.2c1.2,1.2,2.8,1.7,4.4,1.3c1.6-0.3,3-1.4,3.6-2.9c0-0.1,0-0.1,0.1-0.2   l10.5-31.8c0.3-0.5,0.7-0.5,0.9-0.5c0.2,0,0.7,0.1,0.9,0.6l11,39.7c0,0,0,0.1,0,0.1c0.7,1.9,2.3,3.2,4.3,3.3c0.2,0,0.3,0,0.5,0   c1.8,0,3.4-0.9,4.3-2.5c0-0.1,0.1-0.1,0.1-0.2l8.7-19.2c0.2-0.3,0.5-0.4,0.8-0.4H92v-4H79.7c-1.8,0-3.5,1-4.3,2.5   c0,0.1-0.1,0.1-0.1,0.2l-8.7,19.2c-0.3,0.4-0.7,0.5-0.9,0.4c-0.2,0-0.6-0.1-0.8-0.6l-11-39.7c0,0,0-0.1,0-0.1   c-0.7-2-2.5-3.3-4.5-3.4c-2.1-0.1-3.9,1.1-4.8,3c0,0.1,0,0.1-0.1,0.2L33.9,61.6c-0.2,0.4-0.5,0.5-0.7,0.5c-0.2,0-0.5,0-0.8-0.2   L22,47.7c-0.1-0.1-0.1-0.2-0.2-0.2c-0.9-0.9-2.2-1.4-3.5-1.4H8v4h10.3C18.5,50,18.7,50.1,18.9,50.2z"
       id="path2"
       style="fill:#ffbd00;fill-opacity:1" /></g><g
     style="fill:#ffbd69;fill-opacity:1"
     id="g4528"><path
       style="fill:#ffbd69;fill-opacity:1"
       id="path4526"
       d="M18.9,50.2l10.4,14.2c0.1,0.1,0.1,0.2,0.2,0.2c1.2,1.2,2.8,1.7,4.4,1.3c1.6-0.3,3-1.4,3.6-2.9c0-0.1,0-0.1,0.1-0.2   l10.5-31.8c0.3-0.5,0.7-0.5,0.9-0.5c0.2,0,0.7,0.1,0.9,0.6l11,39.7c0,0,0,0.1,0,0.1c0.7,1.9,2.3,3.2,4.3,3.3c0.2,0,0.3,0,0.5,0   c1.8,0,3.4-0.9,4.3-2.5c0-0.1,0.1-0.1,0.1-0.2l8.7-19.2c0.2-0.3,0.5-0.4,0.8-0.4H92v-4H79.7c-1.8,0-3.5,1-4.3,2.5   c0,0.1-0.1,0.1-0.1,0.2l-8.7,19.2c-0.3,0.4-0.7,0.5-0.9,0.4c-0.2,0-0.6-0.1-0.8-0.6l-11-39.7c0,0,0-0.1,0-0.1   c-0.7-2-2.5-3.3-4.5-3.4c-2.1-0.1-3.9,1.1-4.8,3c0,0.1,0,0.1-0.1,0.2L33.9,61.6c-0.2,0.4-0.5,0.5-0.7,0.5c-0.2,0-0.5,0-0.8-0.2   L22,47.7c-0.1-0.1-0.1-0.2-0.2-0.2c-0.9-0.9-2.2-1.4-3.5-1.4H8v4h10.3C18.5,50,18.7,50.1,18.9,50.2z" /></g></svg>