<?xml version="1.0" encoding="UTF-8" standalone="no"?>
<svg
   xmlns:dc="http://purl.org/dc/elements/1.1/"
   xmlns:cc="http://creativecommons.org/ns#"
   xmlns:rdf="http://www.w3.org/1999/02/22-rdf-syntax-ns#"
   xmlns:svg="http://www.w3.org/2000/svg"
   xmlns="http://www.w3.org/2000/svg"
   xmlns:sodipodi="http://sodipodi.sourceforge.net/DTD/sodipodi-0.dtd"
   xmlns:inkscape="http://www.inkscape.org/namespaces/inkscape"
   version="1.1"
   x="0px"
   y="0px"
   viewBox="0 0 100 125"
   style="enable-background:new 0 0 100 100;"
   xml:space="preserve"
   id="svg38"
   sodipodi:docname="temperature.svg"
   inkscape:version="0.92.5 (2060ec1f9f, 2020-04-08)"><metadata
     id="metadata44"><rdf:RDF><cc:Work
         rdf:about=""><dc:format>image/svg+xml</dc:format><dc:type
           rdf:resource="http://purl.org/dc/dcmitype/StillImage" /></cc:Work></rdf:RDF></metadata><defs
     id="defs42" /><sodipodi:namedview
     pagecolor="#ffffff"
     bordercolor="#666666"
     borderopacity="1"
     objecttolerance="10"
     gridtolerance="10"
     guidetolerance="10"
     inkscape:pageopacity="0"
     inkscape:pageshadow="2"
     inkscape:window-width="1920"
     inkscape:window-height="1017"
     id="namedview40"
     showgrid="false"
     inkscape:zoom="6.8"
     inkscape:cx="26.102941"
     inkscape:cy="62.5"
     inkscape:window-x="1912"
     inkscape:window-y="-7"
     inkscape:window-maximized="1"
     inkscape:current-layer="svg38" /><g
     id="g32"
     style="fill:#ffbd69;fill-opacity:1"><path
       d="M51.5,74.59V51.86c0-0.83-0.67-1.5-1.5-1.5s-1.5,0.67-1.5,1.5v22.73c-3.12,0.69-5.46,3.47-5.46,6.79   c0,3.84,3.12,6.96,6.96,6.96s6.96-3.12,6.96-6.96C56.96,78.06,54.62,75.28,51.5,74.59z M50,85.34c-2.18,0-3.96-1.77-3.96-3.96   s1.77-3.96,3.96-3.96s3.96,1.77,3.96,3.96S52.18,85.34,50,85.34z"
       id="path28"
       style="fill:#ffbd69;fill-opacity:1" /><path
       d="M59.06,69.29V12.59c0-5-4.07-9.06-9.06-9.06s-9.06,4.07-9.06,9.06v56.69c-3.81,2.85-6.05,7.32-6.05,12.1   c0,8.34,6.78,15.12,15.12,15.12s15.12-6.78,15.12-15.12C65.12,76.6,62.87,72.14,59.06,69.29z M50,93.5   c-6.68,0-12.12-5.44-12.12-12.12c0-4.05,2.01-7.82,5.39-10.08c0.42-0.28,0.67-0.75,0.67-1.25V44.21h7.1c0.83,0,1.5-0.67,1.5-1.5   s-0.67-1.5-1.5-1.5h-7.1v-7h7.1c0.83,0,1.5-0.67,1.5-1.5s-0.67-1.5-1.5-1.5h-7.1v-7h7.1c0.83,0,1.5-0.67,1.5-1.5s-0.67-1.5-1.5-1.5   h-7.1v-8.62c0-3.34,2.72-6.06,6.06-6.06s6.06,2.72,6.06,6.06v57.47c0,0.5,0.25,0.97,0.67,1.25c3.37,2.26,5.39,6.03,5.39,10.08   C62.12,88.06,56.68,93.5,50,93.5z"
       id="path30"
       style="fill:#ffbd69;fill-opacity:1" /></g></svg>