<?xml version="1.0" encoding="UTF-8" standalone="no"?>
<svg
   xmlns:dc="http://purl.org/dc/elements/1.1/"
   xmlns:cc="http://creativecommons.org/ns#"
   xmlns:rdf="http://www.w3.org/1999/02/22-rdf-syntax-ns#"
   xmlns:svg="http://www.w3.org/2000/svg"
   xmlns="http://www.w3.org/2000/svg"
   xmlns:sodipodi="http://sodipodi.sourceforge.net/DTD/sodipodi-0.dtd"
   xmlns:inkscape="http://www.inkscape.org/namespaces/inkscape"
   version="1.1"
   x="0px"
   y="0px"
   viewBox="0 0 100 125"
   style="enable-background:new 0 0 100 100;"
   xml:space="preserve"
   id="svg78"
   sodipodi:docname="time.svg"
   inkscape:version="0.92.5 (2060ec1f9f, 2020-04-08)"><metadata
     id="metadata84"><rdf:RDF><cc:Work
         rdf:about=""><dc:format>image/svg+xml</dc:format><dc:type
           rdf:resource="http://purl.org/dc/dcmitype/StillImage" /></cc:Work></rdf:RDF></metadata><defs
     id="defs82" /><sodipodi:namedview
     pagecolor="#ffffff"
     bordercolor="#666666"
     borderopacity="1"
     objecttolerance="10"
     gridtolerance="10"
     guidetolerance="10"
     inkscape:pageopacity="0"
     inkscape:pageshadow="2"
     inkscape:window-width="1920"
     inkscape:window-height="1017"
     id="namedview80"
     showgrid="false"
     inkscape:zoom="6.8"
     inkscape:cx="26.102941"
     inkscape:cy="62.5"
     inkscape:window-x="1912"
     inkscape:window-y="-7"
     inkscape:window-maximized="1"
     inkscape:current-layer="svg78" /><g
     id="g72"
     style="fill:#ffbd69;fill-opacity:1"><path
       d="M30.39,36.3c-0.59-0.59-1.54-0.59-2.12,0c-0.59,0.59-0.59,1.54,0,2.12l5,5c0.29,0.29,0.68,0.44,1.06,0.44   s0.77-0.15,1.06-0.44c0.59-0.59,0.59-1.54,0-2.12L30.39,36.3z"
       id="path52"
       style="fill:#ffbd69;fill-opacity:1" /><path
       d="M66.73,72.64c-0.59-0.59-1.54-0.59-2.12,0c-0.59,0.59-0.59,1.54,0,2.12l5,5c0.29,0.29,0.68,0.44,1.06,0.44   s0.77-0.15,1.06-0.44c0.59-0.59,0.59-1.54,0-2.12L66.73,72.64z"
       id="path54"
       style="fill:#ffbd69;fill-opacity:1" /><path
       d="M33.27,72.64l-5,5c-0.59,0.59-0.59,1.54,0,2.12c0.29,0.29,0.68,0.44,1.06,0.44s0.77-0.15,1.06-0.44l5-5   c0.59-0.59,0.59-1.54,0-2.12C34.8,72.05,33.85,72.05,33.27,72.64z"
       id="path56"
       style="fill:#ffbd69;fill-opacity:1" /><path
       d="M65.67,43.86c0.38,0,0.77-0.15,1.06-0.44l5-5c0.59-0.59,0.59-1.54,0-2.12c-0.59-0.59-1.54-0.59-2.12,0l-5,5   c-0.59,0.59-0.59,1.54,0,2.12C64.9,43.71,65.29,43.86,65.67,43.86z"
       id="path58"
       style="fill:#ffbd69;fill-opacity:1" /><path
       d="M29.34,58.03c0-0.83-0.67-1.5-1.5-1.5h-7.07c-0.83,0-1.5,0.67-1.5,1.5s0.67,1.5,1.5,1.5h7.07   C28.67,59.53,29.34,58.86,29.34,58.03z"
       id="path60"
       style="fill:#ffbd69;fill-opacity:1" /><path
       d="M79.23,56.53h-7.07c-0.83,0-1.5,0.67-1.5,1.5s0.67,1.5,1.5,1.5h7.07c0.83,0,1.5-0.67,1.5-1.5S80.06,56.53,79.23,56.53z"
       id="path62"
       style="fill:#ffbd69;fill-opacity:1" /><path
       d="M50,78.69c-0.83,0-1.5,0.67-1.5,1.5v7.07c0,0.83,0.67,1.5,1.5,1.5s1.5-0.67,1.5-1.5v-7.07C51.5,79.36,50.83,78.69,50,78.69   z"
       id="path64"
       style="fill:#ffbd69;fill-opacity:1" /><path
       d="M50,37.36c0.83,0,1.5-0.67,1.5-1.5V28.8c0-0.83-0.67-1.5-1.5-1.5s-1.5,0.67-1.5,1.5v7.07C48.5,36.69,49.17,37.36,50,37.36z   "
       id="path66"
       style="fill:#ffbd69;fill-opacity:1" /><path
       d="M70.57,25.54l3.17-5.47l7.21,4.23c0.24,0.14,0.5,0.21,0.76,0.21c0.51,0,1.02-0.27,1.29-0.74c0.42-0.71,0.18-1.63-0.54-2.05   l-17.03-9.97c-0.71-0.42-1.63-0.18-2.05,0.54c-0.42,0.71-0.18,1.63,0.54,2.05l7.22,4.23l-3.17,5.47   c-4.95-2.63-10.55-4.21-16.48-4.44V6.5h9.15c0.83,0,1.5-0.67,1.5-1.5s-0.67-1.5-1.5-1.5h-21.3c-0.83,0-1.5,0.67-1.5,1.5   s0.67,1.5,1.5,1.5h9.15v13.09c-5.93,0.23-11.52,1.81-16.48,4.44l-3.17-5.47l7.22-4.23c0.71-0.42,0.96-1.34,0.54-2.05   c-0.42-0.72-1.34-0.96-2.05-0.54l-17.03,9.97c-0.71,0.42-0.96,1.34-0.54,2.05c0.28,0.48,0.78,0.74,1.29,0.74   c0.26,0,0.52-0.07,0.76-0.21l7.21-4.23l3.17,5.47c-10.75,6.83-17.9,18.84-17.9,32.49C11.53,79.24,28.79,96.5,50,96.5   s38.47-17.26,38.47-38.47C88.47,44.38,81.32,32.37,70.57,25.54z M50,93.5c-19.56,0-35.47-15.91-35.47-35.47   c0-19.56,15.91-35.47,35.47-35.47s35.47,15.91,35.47,35.47C85.47,77.59,69.56,93.5,50,93.5z"
       id="path68"
       style="fill:#ffbd69;fill-opacity:1" /><path
       d="M60.14,32.79c-0.77-0.31-1.64,0.06-1.95,0.83l-6.53,16.24c-0.54-0.11-1.09-0.17-1.66-0.17c-4.59,0-8.33,3.74-8.33,8.33   c0,2.96,1.56,5.56,3.89,7.03l-2.45,6.1c-0.31,0.77,0.06,1.64,0.83,1.95c0.18,0.07,0.37,0.11,0.56,0.11c0.59,0,1.16-0.36,1.39-0.94   l2.45-6.09c0.54,0.11,1.09,0.17,1.66,0.17c4.59,0,8.33-3.74,8.33-8.33c0-2.96-1.56-5.56-3.89-7.03l6.53-16.25   C61.28,33.98,60.91,33.1,60.14,32.79z M50,63.36c-2.94,0-5.33-2.39-5.33-5.33S47.06,52.7,50,52.7s5.33,2.39,5.33,5.33   S52.94,63.36,50,63.36z"
       id="path70"
       style="fill:#ffbd69;fill-opacity:1" /></g></svg>