<?xml version="1.0" encoding="UTF-8" standalone="no"?>
<!-- Generator: Adobe Illustrator 19.0.0, SVG Export Plug-In . SVG Version: 6.00 Build 0)  -->

<svg
   xmlns:dc="http://purl.org/dc/elements/1.1/"
   xmlns:cc="http://creativecommons.org/ns#"
   xmlns:rdf="http://www.w3.org/1999/02/22-rdf-syntax-ns#"
   xmlns:svg="http://www.w3.org/2000/svg"
   xmlns="http://www.w3.org/2000/svg"
   xmlns:sodipodi="http://sodipodi.sourceforge.net/DTD/sodipodi-0.dtd"
   xmlns:inkscape="http://www.inkscape.org/namespaces/inkscape"
   version="1.1"
   id="Capa_1"
   x="0px"
   y="0px"
   viewBox="0 0 512.016 512.016"
   style="enable-background:new 0 0 512.016 512.016;"
   xml:space="preserve"
   sodipodi:docname="transfer.svg"
   inkscape:version="0.92.5 (2060ec1f9f, 2020-04-08)"><metadata
   id="metadata49"><rdf:RDF><cc:Work
       rdf:about=""><dc:format>image/svg+xml</dc:format><dc:type
         rdf:resource="http://purl.org/dc/dcmitype/StillImage" /></cc:Work></rdf:RDF></metadata><defs
   id="defs47" /><sodipodi:namedview
   pagecolor="#ffffff"
   bordercolor="#666666"
   borderopacity="1"
   objecttolerance="10"
   gridtolerance="10"
   guidetolerance="10"
   inkscape:pageopacity="0"
   inkscape:pageshadow="2"
   inkscape:window-width="1920"
   inkscape:window-height="1017"
   id="namedview45"
   showgrid="false"
   inkscape:zoom="0.4609231"
   inkscape:cx="-96.545388"
   inkscape:cy="256.008"
   inkscape:window-x="-8"
   inkscape:window-y="-8"
   inkscape:window-maximized="1"
   inkscape:current-layer="Capa_1" />
<g
   id="g6"
   style="fill:#ffbd69;fill-opacity:1">
	<g
   id="g4"
   style="fill:#ffbd69;fill-opacity:1">
		<path
   d="M496.008,79.997h-368v-48c0-6.464-3.904-12.32-9.888-14.784s-12.832-1.088-17.44,3.456l-96,96    c-6.24,6.24-6.24,16.384,0,22.624l96,96c4.608,4.576,11.456,5.952,17.44,3.488s9.888-8.32,9.888-14.784v-48h368    c8.832,0,16-7.168,16-16v-64C512.008,87.133,504.84,79.997,496.008,79.997z"
   id="path2"
   style="fill:#ffbd69;fill-opacity:1" />
	</g>
</g>
<g
   id="g12"
   style="fill:#ffbd69;fill-opacity:1">
	<g
   id="g10"
   style="fill:#ffbd69;fill-opacity:1">
		<path
   d="M507.336,372.701l-96-96.032c-4.576-4.576-11.456-5.952-17.44-3.456c-5.984,2.496-9.888,8.32-9.888,14.784v48h-368    c-8.832,0-16,7.168-16,16v64c0,8.832,7.168,16,16,16h368v48c0,6.464,3.904,12.32,9.888,14.784    c5.984,2.496,12.864,1.12,17.44-3.456l96-96C513.576,389.085,513.576,378.941,507.336,372.701z"
   id="path8"
   style="fill:#ffbd69;fill-opacity:1" />
	</g>
</g>
<g
   id="g14">
</g>
<g
   id="g16">
</g>
<g
   id="g18">
</g>
<g
   id="g20">
</g>
<g
   id="g22">
</g>
<g
   id="g24">
</g>
<g
   id="g26">
</g>
<g
   id="g28">
</g>
<g
   id="g30">
</g>
<g
   id="g32">
</g>
<g
   id="g34">
</g>
<g
   id="g36">
</g>
<g
   id="g38">
</g>
<g
   id="g40">
</g>
<g
   id="g42">
</g>
</svg>