<?xml version="1.0" encoding="UTF-8" standalone="no"?>
<svg
   xmlns:dc="http://purl.org/dc/elements/1.1/"
   xmlns:cc="http://creativecommons.org/ns#"
   xmlns:rdf="http://www.w3.org/1999/02/22-rdf-syntax-ns#"
   xmlns:svg="http://www.w3.org/2000/svg"
   xmlns="http://www.w3.org/2000/svg"
   xmlns:sodipodi="http://sodipodi.sourceforge.net/DTD/sodipodi-0.dtd"
   xmlns:inkscape="http://www.inkscape.org/namespaces/inkscape"
   version="1.1"
   x="0px"
   y="0px"
   viewBox="0 0 100 125"
   style="enable-background:new 0 0 100 100;"
   xml:space="preserve"
   id="svg54"
   sodipodi:docname="volume.svg"
   inkscape:version="0.92.5 (2060ec1f9f, 2020-04-08)"><metadata
     id="metadata60"><rdf:RDF><cc:Work
         rdf:about=""><dc:format>image/svg+xml</dc:format><dc:type
           rdf:resource="http://purl.org/dc/dcmitype/StillImage" /></cc:Work></rdf:RDF></metadata><defs
     id="defs58" /><sodipodi:namedview
     pagecolor="#ffffff"
     bordercolor="#666666"
     borderopacity="1"
     objecttolerance="10"
     gridtolerance="10"
     guidetolerance="10"
     inkscape:pageopacity="0"
     inkscape:pageshadow="2"
     inkscape:window-width="1920"
     inkscape:window-height="1017"
     id="namedview56"
     showgrid="false"
     inkscape:zoom="6.8"
     inkscape:cx="26.102941"
     inkscape:cy="68.382353"
     inkscape:window-x="1912"
     inkscape:window-y="-7"
     inkscape:window-maximized="1"
     inkscape:current-layer="svg54" /><g
     id="g48"
     style="fill:#ffbd69;fill-opacity:1"><path
       d="M77.37,10.72c0-0.04-0.01-0.07-0.01-0.11c0-0.05-0.01-0.09-0.01-0.14C76.86,4.98,60.02,3.5,50,3.5   c-10.02,0-26.86,1.48-27.35,6.98c-0.01,0.04-0.01,0.09-0.01,0.14c0,0.04-0.01,0.07-0.01,0.11c0,0.02,0,0.03,0.01,0.05   c0,0.02,0,0.03,0,0.05l5.44,80.09c0.14,5.79,19.69,5.96,21.93,5.96s21.79-0.17,21.93-5.96l5.44-80.09c0-0.02,0-0.03,0-0.05   C77.37,10.76,77.37,10.74,77.37,10.72z M50,6.5c14.87,0,23.67,2.72,24.36,4.22c-0.69,1.5-9.49,4.23-24.36,4.23   c-14.96,0-23.77-2.76-24.36-4.16l0-0.04C26.21,9.26,35.02,6.5,50,6.5z M68.94,90.73c-0.82,1.15-7.69,3.15-18.94,3.15   s-18.12-1.99-18.94-3.15l-3.52-51.82c0.8,0.37,1.74,0.71,2.86,1.03c0.14,0.04,0.28,0.06,0.41,0.06c0.65,0,1.25-0.43,1.44-1.09   c0.23-0.8-0.23-1.63-1.03-1.86c-2.66-0.76-3.55-1.47-3.82-1.73c-0.03-0.04-0.08-0.05-0.12-0.08l-1.41-20.78   c5.48,2.67,16.68,3.49,24.11,3.49s18.64-0.82,24.11-3.49l-1.41,20.71c-0.06,0.09-0.51,0.73-2.76,1.52   c-0.78,0.27-1.2,1.13-0.92,1.91c0.22,0.62,0.8,1.01,1.42,1.01c0.16,0,0.33-0.03,0.49-0.08c0.35-0.12,0.91-0.32,1.53-0.6   L68.94,90.73z"
       id="path36"
       style="fill:#ffbd69;fill-opacity:1" /><path
       d="M39.54,30.38c-0.1-0.82-0.86-1.4-1.68-1.3c-1.84,0.23-3.54,0.52-5.06,0.84c-0.81,0.17-1.33,0.97-1.15,1.78   c0.15,0.7,0.77,1.19,1.46,1.19c0.1,0,0.21-0.01,0.32-0.03c1.44-0.31,3.06-0.58,4.81-0.8C39.06,31.95,39.65,31.2,39.54,30.38z"
       id="path38"
       style="fill:#ffbd69;fill-opacity:1" /><path
       d="M68.27,30.17c-1.5-0.36-3.2-0.68-5.06-0.94c-0.82-0.11-1.58,0.46-1.69,1.28s0.46,1.58,1.28,1.69   c1.76,0.25,3.37,0.55,4.77,0.89c0.12,0.03,0.24,0.04,0.36,0.04c0.68,0,1.29-0.46,1.46-1.15C69.57,31.17,69.07,30.36,68.27,30.17z"
       id="path40"
       style="fill:#ffbd69;fill-opacity:1" /><path
       d="M45.72,39c-1.68-0.07-3.33-0.17-4.91-0.32c-0.82-0.08-1.56,0.53-1.63,1.36c-0.08,0.83,0.53,1.56,1.36,1.63   c1.63,0.15,3.34,0.26,5.07,0.33c0.02,0,0.04,0,0.06,0c0.8,0,1.47-0.63,1.5-1.44C47.19,39.73,46.54,39.03,45.72,39z"
       id="path42"
       style="fill:#ffbd69;fill-opacity:1" /><path
       d="M60.48,38.55c-1.56,0.17-3.21,0.3-4.9,0.39c-0.83,0.04-1.46,0.75-1.42,1.58c0.04,0.8,0.71,1.42,1.5,1.42   c0.03,0,0.05,0,0.08,0c1.75-0.09,3.46-0.23,5.07-0.4c0.82-0.09,1.42-0.83,1.33-1.65C62.04,39.06,61.3,38.46,60.48,38.55z"
       id="path44"
       style="fill:#ffbd69;fill-opacity:1" /><path
       d="M53.07,28.41c-1.01-0.03-2.03-0.04-3.07-0.04c-0.67,0.01-1.34,0.01-2,0.02c-0.83,0.01-1.49,0.7-1.47,1.53   c0.01,0.82,0.68,1.47,1.5,1.47c0.01,0,0.02,0,0.03,0c0.62-0.01,1.24-0.02,1.87-0.02c1.03,0,2.06,0.01,3.06,0.04   c0.01,0,0.03,0,0.04,0c0.81,0,1.48-0.64,1.5-1.46C54.55,29.13,53.9,28.44,53.07,28.41z"
       id="path46"
       style="fill:#ffbd69;fill-opacity:1" /></g></svg>