<?xml version="1.0" encoding="UTF-8" standalone="no"?>
<svg
   xmlns:dc="http://purl.org/dc/elements/1.1/"
   xmlns:cc="http://creativecommons.org/ns#"
   xmlns:rdf="http://www.w3.org/1999/02/22-rdf-syntax-ns#"
   xmlns:svg="http://www.w3.org/2000/svg"
   xmlns="http://www.w3.org/2000/svg"
   xmlns:sodipodi="http://sodipodi.sourceforge.net/DTD/sodipodi-0.dtd"
   xmlns:inkscape="http://www.inkscape.org/namespaces/inkscape"
   version="1.1"
   x="0px"
   y="0px"
   viewBox="0 0 100 125"
   style="enable-background:new 0 0 100 100;"
   xml:space="preserve"
   id="svg30"
   sodipodi:docname="weight.svg"
   inkscape:version="0.92.5 (2060ec1f9f, 2020-04-08)"><metadata
     id="metadata36"><rdf:RDF><cc:Work
         rdf:about=""><dc:format>image/svg+xml</dc:format><dc:type
           rdf:resource="http://purl.org/dc/dcmitype/StillImage" /></cc:Work></rdf:RDF></metadata><defs
     id="defs34" /><sodipodi:namedview
     pagecolor="#ffffff"
     bordercolor="#666666"
     borderopacity="1"
     objecttolerance="10"
     gridtolerance="10"
     guidetolerance="10"
     inkscape:pageopacity="0"
     inkscape:pageshadow="2"
     inkscape:window-width="1920"
     inkscape:window-height="1017"
     id="namedview32"
     showgrid="false"
     inkscape:zoom="6.8"
     inkscape:cx="26.102941"
     inkscape:cy="62.5"
     inkscape:window-x="1912"
     inkscape:window-y="-7"
     inkscape:window-maximized="1"
     inkscape:current-layer="svg30" /><path
     d="M96.47,39.9c0-0.01-0.01-0.02-0.01-0.03c-0.02-0.1-0.06-0.2-0.11-0.3c-0.01-0.01-0.01-0.03-0.01-0.04l-12.75-25  c-0.01-0.02-0.02-0.03-0.03-0.05c-0.05-0.09-0.11-0.17-0.17-0.24c-0.02-0.02-0.03-0.04-0.05-0.06c-0.08-0.08-0.17-0.16-0.27-0.22  c-0.03-0.02-0.06-0.03-0.09-0.05c-0.08-0.05-0.17-0.08-0.26-0.11c-0.03-0.01-0.06-0.02-0.09-0.03c-0.12-0.03-0.24-0.05-0.37-0.05  c0,0-0.01,0-0.01,0c-0.01,0-0.02,0-0.03,0c-0.08,0-0.16,0.01-0.24,0.02L51.5,19.36V5.56c0-0.83-0.67-1.5-1.5-1.5s-1.5,0.67-1.5,1.5  v14.36l-31.02,5.72c-0.03,0.01-0.06,0.02-0.09,0.02c-0.04,0.01-0.07,0.02-0.11,0.03c-0.09,0.03-0.18,0.07-0.27,0.12  c-0.02,0.01-0.04,0.02-0.06,0.03c-0.1,0.07-0.2,0.14-0.28,0.23c-0.02,0.02-0.04,0.04-0.05,0.06c-0.07,0.08-0.12,0.16-0.17,0.25  c-0.01,0.02-0.02,0.03-0.03,0.05l-12.75,25c-0.01,0.01-0.01,0.03-0.01,0.04c-0.05,0.09-0.08,0.19-0.11,0.3  c0,0.01-0.01,0.02-0.01,0.03c-0.02,0.1-0.03,0.21-0.03,0.31c0,0.02,0,0.03,0,0.05c0,0.01,0,0.02,0,0.03  C3.54,60,9.92,66.36,17.75,66.36S31.96,60,32,52.18c0-0.01,0-0.02,0-0.03c0-0.02,0-0.03,0-0.05c0-0.11-0.01-0.21-0.03-0.31  c0-0.01-0.01-0.02-0.01-0.03c-0.02-0.1-0.06-0.2-0.11-0.3c-0.01-0.01-0.01-0.03-0.01-0.04L20,28.22l28.5-5.25v69.98H32.05  c-0.83,0-1.5,0.67-1.5,1.5s0.67,1.5,1.5,1.5h35.91c0.83,0,1.5-0.67,1.5-1.5s-0.67-1.5-1.5-1.5H51.5V22.41l28.03-5.17L68.16,39.53  c-0.01,0.01-0.01,0.03-0.01,0.04c-0.05,0.09-0.08,0.19-0.11,0.3c0,0.01-0.01,0.02-0.01,0.03C68,40,67.99,40.1,67.99,40.21  c0,0.02,0,0.03,0,0.05c0,0.01,0,0.02,0,0.03c0.04,7.83,6.42,14.18,14.25,14.18s14.21-6.35,14.25-14.18c0-0.01,0-0.02,0-0.03  c0-0.02,0-0.03,0-0.05C96.5,40.1,96.49,40,96.47,39.9z M17.75,63.36c-5.7,0-10.42-4.26-11.15-9.75h22.31  C28.17,59.1,23.45,63.36,17.75,63.36z M28.06,50.6H7.45l10.3-20.2L28.06,50.6z M82.25,18.52l10.3,20.2H71.94L82.25,18.52z   M82.25,51.47c-5.7,0-10.42-4.26-11.15-9.75H93.4C92.67,47.21,87.94,51.47,82.25,51.47z"
     id="path24"
     style="fill:#ffbd69;fill-opacity:1" /></svg>